<?xml version="1.0" encoding="UTF-8"?>
<svg xmlns="http://www.w3.org/2000/svg" xmlns:xlink="http://www.w3.org/1999/xlink" width="16px" height="16px" viewBox="0 0 16 16" version="1.1">
<g id="surface1">
<path style=" stroke:none;fill-rule:nonzero;fill:rgb(0%,0%,0%);fill-opacity:1;" d="M 7.675781 0.523438 C 7.480469 0.820312 7.265625 1.144531 7.195312 1.25 C 7.023438 1.511719 6.984375 1.617188 7 1.820312 C 7.003906 1.914062 7.023438 2.015625 7.03125 2.046875 C 7.046875 2.097656 7.027344 2.113281 6.945312 2.128906 C 6.722656 2.179688 6.652344 2.300781 6.1875 3.410156 C 5.917969 4.0625 5.847656 4.175781 5.660156 4.253906 C 5.371094 4.378906 5.1875 4.574219 4.953125 4.988281 C 4.878906 5.121094 4.738281 5.355469 4.648438 5.507812 C 4.554688 5.65625 4.472656 5.789062 4.472656 5.796875 C 4.449219 5.832031 4.238281 5.59375 3.925781 5.179688 C 3.738281 4.933594 3.578125 4.734375 3.5625 4.734375 C 3.535156 4.734375 3.34375 5.011719 3.058594 5.464844 C 2.953125 5.632812 2.820312 5.804688 2.765625 5.84375 C 2.707031 5.882812 2.570312 5.929688 2.449219 5.949219 C 2.335938 5.96875 2.21875 6.003906 2.195312 6.03125 C 2.117188 6.109375 1.089844 7.589844 1.097656 7.601562 C 1.105469 7.613281 1.296875 7.441406 1.527344 7.222656 L 1.941406 6.828125 L 1.960938 6.996094 L 1.984375 7.15625 L 2.066406 7.121094 C 2.113281 7.101562 2.230469 7.027344 2.324219 6.957031 C 2.527344 6.816406 2.535156 6.816406 2.535156 6.886719 C 2.535156 6.953125 2.570312 6.953125 2.796875 6.902344 C 2.9375 6.867188 2.992188 6.832031 3.078125 6.722656 C 3.226562 6.535156 3.394531 6.449219 3.574219 6.476562 L 3.714844 6.496094 L 3.664062 6.289062 C 3.609375 6.070312 3.585938 5.710938 3.625 5.53125 L 3.640625 5.433594 L 3.957031 5.785156 L 4.277344 6.140625 L 4.230469 6.246094 C 4.203125 6.308594 4.132812 6.4375 4.070312 6.539062 L 3.953125 6.722656 L 4.390625 6.722656 C 4.8125 6.722656 4.835938 6.71875 4.929688 6.628906 C 5.0625 6.507812 5.277344 6.410156 5.617188 6.3125 C 6.054688 6.191406 6.078125 6.1875 6.25 6.285156 C 6.519531 6.433594 6.917969 6.726562 7.152344 6.945312 C 7.324219 7.105469 7.417969 7.167969 7.542969 7.207031 C 7.632812 7.226562 7.710938 7.242188 7.71875 7.230469 C 7.726562 7.222656 7.6875 7.132812 7.640625 7.03125 C 7.589844 6.933594 7.546875 6.835938 7.542969 6.816406 C 7.542969 6.796875 7.425781 6.625 7.28125 6.445312 C 6.972656 6.050781 6.5 5.605469 5.917969 5.160156 C 5.679688 4.984375 5.496094 4.820312 5.503906 4.808594 C 5.511719 4.789062 5.5625 4.765625 5.617188 4.753906 C 5.898438 4.6875 6.101562 4.355469 6.554688 3.222656 C 6.703125 2.851562 6.929688 2.519531 7.113281 2.390625 C 7.222656 2.316406 7.257812 2.269531 7.3125 2.105469 C 7.371094 1.9375 7.824219 1.207031 7.890625 1.167969 C 7.921875 1.148438 8.121094 1.488281 8.183594 1.667969 C 8.230469 1.800781 8.246094 1.90625 8.246094 2.109375 C 8.246094 2.25 8.238281 2.378906 8.230469 2.390625 C 8.222656 2.40625 8.113281 2.425781 7.992188 2.433594 C 7.871094 2.445312 7.738281 2.472656 7.695312 2.496094 C 7.59375 2.550781 6.671875 3.894531 6.710938 3.929688 C 6.730469 3.945312 6.867188 3.960938 7.019531 3.960938 C 7.386719 3.960938 7.4375 3.996094 7.613281 4.40625 L 7.746094 4.714844 L 8.183594 5.078125 C 8.742188 5.542969 9.132812 5.816406 9.421875 5.949219 C 9.832031 6.136719 10.117188 6.386719 10.546875 6.9375 C 10.695312 7.128906 10.824219 7.273438 10.832031 7.265625 C 10.839844 7.253906 10.835938 7.15625 10.820312 7.054688 C 10.804688 6.949219 10.789062 6.816406 10.789062 6.753906 C 10.789062 6.652344 10.796875 6.644531 10.832031 6.691406 C 10.910156 6.777344 11.003906 7.089844 11.082031 7.507812 C 11.175781 8.03125 11.203125 8.121094 11.253906 8.121094 C 11.320312 8.121094 11.328125 8.015625 11.28125 7.804688 C 11.214844 7.519531 11.242188 7.363281 11.367188 7.308594 C 11.632812 7.179688 11.894531 7.300781 12.1875 7.679688 C 12.464844 8.042969 12.660156 8.238281 12.722656 8.226562 C 12.769531 8.214844 12.742188 8.152344 12.503906 7.753906 C 12.351562 7.5 12.125 7.121094 12.003906 6.90625 C 11.410156 5.875 11.179688 5.558594 10.800781 5.242188 L 10.589844 5.070312 L 10.351562 4.449219 C 10.21875 4.109375 10.050781 3.660156 9.976562 3.453125 C 9.902344 3.242188 9.808594 3.003906 9.765625 2.914062 C 9.644531 2.667969 9.425781 2.410156 9.183594 2.230469 C 9.039062 2.121094 8.898438 1.980469 8.792969 1.828125 C 8.640625 1.617188 8.597656 1.519531 8.34375 0.808594 C 8.191406 0.371094 8.0625 0.0117188 8.050781 0 C 8.039062 -0.0078125 7.871094 0.230469 7.675781 0.523438 Z M 9.378906 3.753906 C 9.679688 3.863281 9.898438 4.101562 10.066406 4.484375 C 10.324219 5.074219 10.625 5.523438 10.925781 5.753906 C 11.042969 5.847656 11.109375 5.960938 11.074219 6.007812 C 11.054688 6.035156 10.664062 5.8125 10.472656 5.664062 C 9.953125 5.261719 9.496094 4.734375 9.085938 4.066406 C 8.980469 3.890625 8.902344 3.738281 8.910156 3.722656 C 8.9375 3.683594 9.246094 3.703125 9.378906 3.753906 Z M 9.378906 3.753906 "/>
<path style=" stroke:none;fill-rule:nonzero;fill:rgb(0%,0%,0%);fill-opacity:1;" d="M 12 2.367188 C 11.953125 2.484375 11.84375 2.679688 11.757812 2.804688 C 11.628906 2.980469 11.566406 3.035156 11.464844 3.074219 C 11.390625 3.097656 11.320312 3.128906 11.300781 3.136719 C 11.253906 3.152344 10.601562 4.527344 10.636719 4.546875 C 10.65625 4.554688 10.796875 4.394531 11.042969 4.070312 C 11.117188 3.980469 11.132812 3.980469 11.132812 4.070312 C 11.132812 4.109375 11.125 4.144531 11.109375 4.144531 C 11.09375 4.144531 11.082031 4.183594 11.082031 4.238281 C 11.082031 4.34375 11.101562 4.351562 11.222656 4.269531 C 11.320312 4.203125 11.335938 4.164062 11.410156 3.867188 C 11.472656 3.621094 11.644531 3.398438 11.949219 3.152344 C 12.082031 3.046875 12.195312 2.960938 12.203125 2.96875 C 12.207031 2.976562 12.253906 3.078125 12.304688 3.1875 C 12.441406 3.480469 12.4375 3.578125 12.242188 3.980469 C 12.15625 4.164062 12.082031 4.324219 12.082031 4.347656 C 12.082031 4.367188 12.15625 4.378906 12.261719 4.371094 C 12.414062 4.363281 12.488281 4.378906 12.789062 4.519531 L 13.144531 4.679688 L 13.128906 4.898438 C 13.085938 5.46875 13.082031 5.75 13.117188 5.890625 C 13.136719 5.972656 13.164062 6.042969 13.179688 6.046875 C 13.195312 6.050781 13.238281 5.957031 13.28125 5.832031 C 13.335938 5.664062 13.375 5.597656 13.4375 5.5625 C 13.53125 5.507812 13.785156 5.527344 13.820312 5.59375 C 13.835938 5.628906 13.984375 6.910156 13.984375 7.035156 C 13.984375 7.136719 14.039062 6.953125 14.128906 6.574219 C 14.183594 6.34375 14.230469 6.148438 14.234375 6.140625 C 14.234375 6.136719 14.363281 6.222656 14.511719 6.332031 C 14.886719 6.605469 15.550781 6.910156 15.757812 6.902344 L 15.84375 6.902344 L 15.75 6.84375 C 15.082031 6.414062 14.957031 6.3125 14.601562 5.910156 C 14.226562 5.480469 13.816406 4.804688 13.519531 4.109375 C 13.390625 3.8125 13.34375 3.75 13.207031 3.703125 C 12.886719 3.589844 12.699219 3.40625 12.5625 3.078125 C 12.503906 2.9375 12.316406 2.539062 12.164062 2.238281 C 12.140625 2.195312 12.113281 2.15625 12.105469 2.15625 C 12.097656 2.15625 12.050781 2.25 12 2.367188 Z M 12 2.367188 "/>
<path style=" stroke:none;fill-rule:nonzero;fill:rgb(0%,0%,0%);fill-opacity:1;" d="M 3.878906 7.207031 C 3.058594 7.277344 1.996094 7.589844 1.242188 7.976562 C 0.832031 8.183594 -0.0546875 8.816406 0.0195312 8.847656 C 0.0351562 8.855469 0.257812 8.761719 0.519531 8.640625 C 1.171875 8.339844 1.644531 8.199219 2.441406 8.066406 C 4.429688 7.734375 6.921875 8.070312 9.578125 9.023438 C 9.933594 9.148438 10.433594 9.332031 10.683594 9.421875 C 11.410156 9.683594 11.632812 9.71875 12.625 9.695312 C 13.382812 9.679688 13.496094 9.671875 13.71875 9.59375 C 13.855469 9.550781 14.011719 9.5 14.0625 9.484375 C 14.195312 9.441406 14.632812 9.207031 14.789062 9.09375 C 15.1875 8.800781 15.625 8.308594 15.890625 7.855469 C 16.007812 7.660156 16.023438 7.546875 15.914062 7.691406 C 15.875 7.746094 15.828125 7.789062 15.8125 7.789062 C 15.796875 7.789062 15.703125 7.878906 15.601562 7.988281 C 15.5 8.101562 15.292969 8.28125 15.140625 8.394531 C 14.503906 8.859375 13.902344 9.046875 13.019531 9.046875 C 12.566406 9.042969 12.273438 9.019531 12.1875 8.980469 C 12.167969 8.972656 12.089844 8.957031 12.015625 8.949219 C 11.804688 8.925781 11.222656 8.753906 10.894531 8.613281 C 10.003906 8.226562 9.707031 8.109375 9.289062 7.957031 C 8.214844 7.578125 6.949219 7.277344 6.144531 7.214844 C 5.722656 7.183594 4.210938 7.179688 3.878906 7.207031 Z M 3.878906 7.207031 "/>
<path style=" stroke:none;fill-rule:nonzero;fill:rgb(0%,0%,0%);fill-opacity:1;" d="M 7.609375 9.632812 C 7.53125 9.675781 7.425781 9.859375 7.375 10.050781 C 7.304688 10.308594 7.332031 10.730469 7.433594 11.039062 C 7.585938 11.5 7.804688 11.730469 8.078125 11.730469 C 8.261719 11.730469 8.363281 11.644531 8.445312 11.410156 C 8.5 11.265625 8.507812 11.179688 8.507812 10.882812 C 8.507812 10.582031 8.5 10.503906 8.441406 10.332031 C 8.335938 10.03125 8.175781 9.765625 8.035156 9.675781 C 7.914062 9.59375 7.710938 9.574219 7.609375 9.632812 Z M 7.609375 9.632812 "/>
<path style=" stroke:none;fill-rule:nonzero;fill:rgb(0%,0%,0%);fill-opacity:1;" d="M 9.074219 10.453125 C 9.019531 10.5 8.953125 10.625 8.90625 10.753906 C 8.832031 10.949219 8.824219 11.007812 8.824219 11.285156 C 8.832031 11.972656 9.101562 12.46875 9.449219 12.425781 C 9.554688 12.410156 9.601562 12.378906 9.6875 12.261719 C 9.828125 12.066406 9.882812 11.855469 9.878906 11.492188 C 9.875 11.148438 9.808594 10.875 9.679688 10.652344 C 9.515625 10.371094 9.25 10.289062 9.074219 10.453125 Z M 9.074219 10.453125 "/>
<path style=" stroke:none;fill-rule:nonzero;fill:rgb(0%,0%,0%);fill-opacity:1;" d="M 6.261719 10.84375 C 6.039062 10.992188 5.976562 11.445312 6.121094 11.859375 C 6.214844 12.117188 6.457031 12.449219 6.640625 12.566406 C 6.816406 12.679688 7.058594 12.699219 7.199219 12.621094 C 7.328125 12.542969 7.414062 12.3125 7.414062 12.039062 C 7.414062 11.277344 6.710938 10.550781 6.261719 10.84375 Z M 6.261719 10.84375 "/>
<path style=" stroke:none;fill-rule:nonzero;fill:rgb(0%,0%,0%);fill-opacity:1;" d="M 8.332031 12.667969 C 7.96875 12.847656 7.671875 13.34375 7.597656 13.902344 C 7.566406 14.15625 7.566406 14.667969 7.597656 14.972656 C 7.683594 15.722656 7.875 16.050781 8.183594 15.992188 C 8.34375 15.964844 8.46875 15.824219 8.703125 15.425781 C 8.933594 15.023438 9.132812 14.789062 9.3125 14.703125 C 9.378906 14.675781 9.546875 14.621094 9.683594 14.582031 C 9.984375 14.503906 10.066406 14.460938 10.175781 14.308594 C 10.335938 14.09375 10.34375 13.816406 10.195312 13.546875 C 10.042969 13.273438 9.410156 12.808594 8.996094 12.671875 C 8.789062 12.605469 8.464844 12.601562 8.332031 12.667969 Z M 8.332031 12.667969 "/>
<path style=" stroke:none;fill-rule:nonzero;fill:rgb(0%,0%,0%);fill-opacity:1;" d="M 6.167969 13.132812 C 6.113281 13.171875 6.039062 13.273438 6 13.359375 C 5.941406 13.484375 5.933594 13.539062 5.949219 13.671875 C 6.011719 14.3125 6.558594 14.832031 7.015625 14.679688 C 7.398438 14.550781 7.421875 13.898438 7.058594 13.429688 C 6.882812 13.207031 6.679688 13.085938 6.453125 13.070312 C 6.304688 13.058594 6.25 13.074219 6.167969 13.132812 Z M 6.167969 13.132812 "/>
</g>
</svg>
