<svg id="visual" viewBox="0 0 900 600" width="900" height="600" xmlns="http://www.w3.org/2000/svg" xmlns:xlink="http://www.w3.org/1999/xlink" version="1.1"><g stroke-width="1" stroke-linejoin="bevel"><path d="M437 325L401 407L471 387Z" fill="#f6deb8" stroke="#f6deb8"></path><path d="M401 407L423 476L471 387Z" fill="#f7ce91" stroke="#f7ce91"></path><path d="M471 387L516 295L437 325Z" fill="#f5ede0" stroke="#f5ede0"></path><path d="M280 322L293 364L437 325Z" fill="#f7c67e" stroke="#f7c67e"></path><path d="M437 325L293 364L401 407Z" fill="#f7b557" stroke="#f7b557"></path><path d="M401 407L310 525L423 476Z" fill="#f7be6b" stroke="#f7be6b"></path><path d="M502 231L406 228L437 325Z" fill="#f6deb8" stroke="#f6deb8"></path><path d="M578 506L580 367L471 387Z" fill="#f7be6b" stroke="#f7be6b"></path><path d="M471 387L580 367L516 295Z" fill="#f7d6a5" stroke="#f7d6a5"></path><path d="M406 228L280 322L437 325Z" fill="#f7ad42" stroke="#f7ad42"></path><path d="M591 277L502 231L516 295Z" fill="#f5ede0" stroke="#f5ede0"></path><path d="M516 295L502 231L437 325Z" fill="#f7be6b" stroke="#f7be6b"></path><path d="M472 600L486 539L360 600Z" fill="#f69b03" stroke="#f69b03"></path><path d="M423 476L486 539L471 387Z" fill="#f69b03" stroke="#f69b03"></path><path d="M580 367L591 277L516 295Z" fill="#f7b557" stroke="#f7b557"></path><path d="M184 401L310 525L293 364Z" fill="#f5ede0" stroke="#f5ede0"></path><path d="M293 364L310 525L401 407Z" fill="#f69b03" stroke="#f69b03"></path><path d="M486 539L578 506L471 387Z" fill="#f7d6a5" stroke="#f7d6a5"></path><path d="M580 367L684 408L591 277Z" fill="#f7b557" stroke="#f7b557"></path><path d="M434 84L309 197L406 228Z" fill="#f5ede0" stroke="#f5ede0"></path><path d="M406 228L309 197L280 322Z" fill="#f7b557" stroke="#f7b557"></path><path d="M591 277L589 204L502 231Z" fill="#f7ad42" stroke="#f7ad42"></path><path d="M502 231L434 84L406 228Z" fill="#f6e6cc" stroke="#f6e6cc"></path><path d="M360 600L486 539L423 476Z" fill="#f7c67e" stroke="#f7c67e"></path><path d="M486 539L584 600L578 506Z" fill="#f7ce91" stroke="#f7ce91"></path><path d="M310 525L360 600L423 476Z" fill="#f7c67e" stroke="#f7c67e"></path><path d="M172 280L184 401L280 322Z" fill="#f6e6cc" stroke="#f6e6cc"></path><path d="M280 322L184 401L293 364Z" fill="#f69b03" stroke="#f69b03"></path><path d="M310 525L309 600L360 600Z" fill="#f5ede0" stroke="#f5ede0"></path><path d="M578 506L684 408L580 367Z" fill="#f69b03" stroke="#f69b03"></path><path d="M591 277L722 235L589 204Z" fill="#f6e6cc" stroke="#f6e6cc"></path><path d="M170 528L309 600L310 525Z" fill="#f7be6b" stroke="#f7be6b"></path><path d="M715 91L560 137L589 204Z" fill="#f7ad42" stroke="#f7ad42"></path><path d="M589 204L560 137L502 231Z" fill="#f5ede0" stroke="#f5ede0"></path><path d="M309 197L172 280L280 322Z" fill="#f6e6cc" stroke="#f6e6cc"></path><path d="M699 600L682 475L578 506Z" fill="#f5ede0" stroke="#f5ede0"></path><path d="M578 506L682 475L684 408Z" fill="#f6deb8" stroke="#f6deb8"></path><path d="M472 600L584 600L486 539Z" fill="#f7d6a5" stroke="#f7d6a5"></path><path d="M479 75L434 84L502 231Z" fill="#f7b557" stroke="#f7b557"></path><path d="M309 197L170 206L172 280Z" fill="#f6e6cc" stroke="#f6e6cc"></path><path d="M434 84L260 132L309 197Z" fill="#f6deb8" stroke="#f6deb8"></path><path d="M560 137L479 75L502 231Z" fill="#f7ad42" stroke="#f7ad42"></path><path d="M68 439L170 528L184 401Z" fill="#f6e6cc" stroke="#f6e6cc"></path><path d="M184 401L170 528L310 525Z" fill="#f7d6a5" stroke="#f7d6a5"></path><path d="M260 132L170 206L309 197Z" fill="#f7ce91" stroke="#f7ce91"></path><path d="M172 280L92 303L184 401Z" fill="#f7ce91" stroke="#f7ce91"></path><path d="M684 408L734 265L591 277Z" fill="#f5ede0" stroke="#f5ede0"></path><path d="M508 0L420 0L479 75Z" fill="#f5ede0" stroke="#f5ede0"></path><path d="M786 386L734 265L684 408Z" fill="#f7be6b" stroke="#f7be6b"></path><path d="M734 265L722 235L591 277Z" fill="#f7ad42" stroke="#f7ad42"></path><path d="M99 71L117 237L170 206Z" fill="#f6deb8" stroke="#f6deb8"></path><path d="M170 206L117 237L172 280Z" fill="#f7d6a5" stroke="#f7d6a5"></path><path d="M117 237L92 303L172 280Z" fill="#f7b557" stroke="#f7b557"></path><path d="M170 528L166 600L309 600Z" fill="#f7ce91" stroke="#f7ce91"></path><path d="M119 600L166 600L170 528Z" fill="#f5ede0" stroke="#f5ede0"></path><path d="M297 0L218 89L260 132Z" fill="#f7ce91" stroke="#f7ce91"></path><path d="M260 132L218 89L170 206Z" fill="#f7ad42" stroke="#f7ad42"></path><path d="M297 0L260 132L434 84Z" fill="#f6deb8" stroke="#f6deb8"></path><path d="M584 600L699 600L578 506Z" fill="#f7b557" stroke="#f7b557"></path><path d="M682 475L786 386L684 408Z" fill="#f7d6a5" stroke="#f7d6a5"></path><path d="M806 488L786 386L682 475Z" fill="#f6deb8" stroke="#f6deb8"></path><path d="M734 265L800 265L722 235Z" fill="#f6e6cc" stroke="#f6e6cc"></path><path d="M92 303L68 439L184 401Z" fill="#f7b557" stroke="#f7b557"></path><path d="M508 0L479 75L560 137Z" fill="#f5ede0" stroke="#f5ede0"></path><path d="M479 75L420 0L434 84Z" fill="#f7c67e" stroke="#f7c67e"></path><path d="M68 439L91 537L170 528Z" fill="#f7b557" stroke="#f7b557"></path><path d="M613 0L508 0L560 137Z" fill="#f7d6a5" stroke="#f7d6a5"></path><path d="M91 537L119 600L170 528Z" fill="#f7ce91" stroke="#f7ce91"></path><path d="M786 386L800 265L734 265Z" fill="#f69b03" stroke="#f69b03"></path><path d="M722 235L715 91L589 204Z" fill="#f7be6b" stroke="#f7be6b"></path><path d="M420 0L297 0L434 84Z" fill="#f7c67e" stroke="#f7c67e"></path><path d="M778 600L806 488L682 475Z" fill="#f7b557" stroke="#f7b557"></path><path d="M900 262L839 219L800 265Z" fill="#f7b557" stroke="#f7b557"></path><path d="M831 127L715 91L722 235Z" fill="#f6deb8" stroke="#f6deb8"></path><path d="M715 91L613 0L560 137Z" fill="#f7b557" stroke="#f7b557"></path><path d="M699 600L778 600L682 475Z" fill="#f7d6a5" stroke="#f7d6a5"></path><path d="M68 439L0 539L91 537Z" fill="#f6a42b" stroke="#f6a42b"></path><path d="M91 537L0 600L119 600Z" fill="#f7be6b" stroke="#f7be6b"></path><path d="M0 287L0 439L68 439Z" fill="#f6e6cc" stroke="#f6e6cc"></path><path d="M0 287L68 439L92 303Z" fill="#f7b557" stroke="#f7b557"></path><path d="M297 0L200 0L218 89Z" fill="#f7d6a5" stroke="#f7d6a5"></path><path d="M218 89L99 71L170 206Z" fill="#f7ad42" stroke="#f7ad42"></path><path d="M117 237L0 287L92 303Z" fill="#f7d6a5" stroke="#f7d6a5"></path><path d="M0 181L0 287L117 237Z" fill="#f5ede0" stroke="#f5ede0"></path><path d="M800 265L839 219L722 235Z" fill="#f7d6a5" stroke="#f7d6a5"></path><path d="M900 262L800 265L786 386Z" fill="#f7be6b" stroke="#f7be6b"></path><path d="M137 0L99 71L218 89Z" fill="#f6deb8" stroke="#f6deb8"></path><path d="M817 0L688 0L715 91Z" fill="#f5ede0" stroke="#f5ede0"></path><path d="M715 91L688 0L613 0Z" fill="#f7be6b" stroke="#f7be6b"></path><path d="M0 439L0 539L68 439Z" fill="#f7d6a5" stroke="#f7d6a5"></path><path d="M99 71L0 181L117 237Z" fill="#f69b03" stroke="#f69b03"></path><path d="M839 219L831 127L722 235Z" fill="#f7ce91" stroke="#f7ce91"></path><path d="M200 0L137 0L218 89Z" fill="#f7b557" stroke="#f7b557"></path><path d="M99 71L0 93L0 181Z" fill="#f6a42b" stroke="#f6a42b"></path><path d="M900 490L900 407L806 488Z" fill="#f6a42b" stroke="#f6a42b"></path><path d="M806 488L900 407L786 386Z" fill="#f7ce91" stroke="#f7ce91"></path><path d="M839 219L900 173L831 127Z" fill="#f7b557" stroke="#f7b557"></path><path d="M900 407L900 262L786 386Z" fill="#f7ad42" stroke="#f7ad42"></path><path d="M0 539L0 600L91 537Z" fill="#f6deb8" stroke="#f6deb8"></path><path d="M900 600L900 490L806 488Z" fill="#f5ede0" stroke="#f5ede0"></path><path d="M0 0L0 93L99 71Z" fill="#f7ce91" stroke="#f7ce91"></path><path d="M900 262L900 173L839 219Z" fill="#f7c67e" stroke="#f7c67e"></path><path d="M831 127L817 0L715 91Z" fill="#f6deb8" stroke="#f6deb8"></path><path d="M778 600L900 600L806 488Z" fill="#f7ce91" stroke="#f7ce91"></path><path d="M900 173L900 130L831 127Z" fill="#f6deb8" stroke="#f6deb8"></path><path d="M900 0L817 0L831 127Z" fill="#f6deb8" stroke="#f6deb8"></path><path d="M137 0L0 0L99 71Z" fill="#f7d6a5" stroke="#f7d6a5"></path><path d="M900 130L900 0L831 127Z" fill="#f7ad42" stroke="#f7ad42"></path></g></svg>